<svg xmlns="http://www.w3.org/2000/svg" viewBox="0 0 32 32" role="img" aria-label="MyStock">
  <defs>
    <linearGradient id="tg" x1="0" y1="0" x2="1" y2="0">
      <stop offset="67%" stop-color="#ffffff"/>
      <stop offset="67%" stop-color="#22d3ee"/>
    </linearGradient>
  </defs>
  <rect width="32" height="32" rx="7" fill="#0a0e17"/>
  <!-- box outline : blanc -->
  <g transform="translate(9,3) scale(0.5833)" stroke="#ffffff" stroke-width="2" fill="none" stroke-linecap="round" stroke-linejoin="round">
    <path d="M21 16V8a2 2 0 0 0-1-1.73l-7-4a2 2 0 0 0-2 0l-7 4A2 2 0 0 0 3 8v8a2 2 0 0 0 1 1.73l7 4a2 2 0 0 0 2 0l7-4A2 2 0 0 0 21 16z"/>
  </g>
  <!-- lignes de détail : bleu -->
  <g transform="translate(9,3) scale(0.5833)" stroke="#22d3ee" stroke-width="2" fill="none" stroke-linecap="round" stroke-linejoin="round">
    <line x1="16.5" y1="9.4" x2="7.5" y2="4.21"/>
    <polyline points="3.27 6.96 12 12.01 20.73 6.96"/>
    <line x1="12" y1="22.08" x2="12" y2="12"/>
  </g>
  <text x="16" y="29" text-anchor="middle" font-family="Segoe UI, system-ui, sans-serif" font-size="9" font-weight="800" fill="url(#tg)">MyS</text>
</svg>
